<svg version="1.1" xmlns="http://www.w3.org/2000/svg"
     viewBox="0 0 100 100"
     fill="currentColor" id="testfilter"  style="
    filter: drop-shadow(0px 0px 40px rgba(253, 0, 0, 1));
">
     
<path d="M0 0 C8.58 0 17.16 0 26 0 C26 1.98 26 3.96 26 6 C27.98 6 29.96 6 32 6 C32 7.98 32 9.96 32 12 C33.98 12 35.96 12 38 12 C38 20.58 38 29.16 38 38 C36.02 38 34.04 38 32 38 C32 39.98 32 41.96 32 44 C30.02 44 28.04 44 26 44 C26 45.98 26 47.96 26 50 C17.42 50 8.84 50 0 50 C0 48.02 0 46.04 0 44 C-1.98 44 -3.96 44 -6 44 C-6 42.02 -6 40.04 -6 38 C-7.98 38 -9.96 38 -12 38 C-12 29.42 -12 20.84 -12 12 C-10.02 12 -8.04 12 -6 12 C-6 10.02 -6 8.04 -6 6 C-4.02 6 -2.04 6 0 6 C0 4.02 0 2.04 0 0 Z M1 7 C1 8.98 1 10.96 1 13 C-0.98 13 -2.96 13 -5 13 C-5 20.92 -5 28.84 -5 37 C-3.02 37 -1.04 37 1 37 C1 38.98 1 40.96 1 43 C8.92 43 16.84 43 25 43 C25 41.02 25 39.04 25 37 C26.98 37 28.96 37 31 37 C31 29.08 31 21.16 31 13 C29.02 13 27.04 13 25 13 C25 11.02 25 9.04 25 7 C17.08 7 9.16 7 1 7 Z " fill="currentColor" id="testfilter" transform="translate(37,25)" />
<path d="M0 0 C2.64 0 5.28 0 8 0 C8 2.31 8 4.62 8 7 C9.98 7 11.96 7 14 7 C14 9.31 14 11.62 14 14 C11.69 14 9.38 14 7 14 C7 12.02 7 10.04 7 8 C4.69 8 2.38 8 0 8 C0 5.36 0 2.72 0 0 Z " fill="currentColor" id="testfilter" transform="translate(71,71)"/>
<path d="M0 0 C2.64 0 5.28 0 8 0 C8 2.64 8 5.28 8 8 C5.69 8 3.38 8 1 8 C1 9.98 1 11.96 1 14 C-1.31 14 -3.62 14 -6 14 C-6 11.69 -6 9.38 -6 7 C-4.02 7 -2.04 7 0 7 C0 4.69 0 2.38 0 0 Z " fill="currentColor"  id="testfilter" transform="translate(21,71)"/>
<path d="M0 0 C2.31 0 4.62 0 7 0 C7 2.31 7 4.62 7 7 C5.02 7 3.04 7 1 7 C1 9.31 1 11.62 1 14 C-1.64 14 -4.28 14 -7 14 C-7 11.36 -7 8.72 -7 6 C-4.69 6 -2.38 6 0 6 C0 4.02 0 2.04 0 0 Z " fill="currentColor" id="testfilter" transform="translate(78,15)"/>
<path d="M0 0 C2.31 0 4.62 0 7 0 C7 1.98 7 3.96 7 6 C9.31 6 11.62 6 14 6 C14 8.64 14 11.28 14 14 C11.36 14 8.72 14 6 14 C6 11.69 6 9.38 6 7 C4.02 7 2.04 7 0 7 C0 4.69 0 2.38 0 0 Z " fill="currentColor"  id="testfilter" transform="translate(15,15)"/>
<path d="M0 0 C2.64 0 5.28 0 8 0 C8 4.29 8 8.58 8 13 C5.36 13 2.72 13 0 13 C0 8.71 0 4.42 0 0 Z " fill="currentColor" id="testfilter" transform="translate(46,81)"/>
<path d="M0 0 C4.29 0 8.58 0 13 0 C13 2.64 13 5.28 13 8 C8.71 8 4.42 8 0 8 C0 5.36 0 2.72 0 0 Z " fill="currentColor" id="testfilter" transform="translate(81,46)"/>
<path d="M0 0 C4.29 0 8.58 0 13 0 C13 2.64 13 5.28 13 8 C8.71 8 4.42 8 0 8 C0 5.36 0 2.72 0 0 Z " fill="currentColor" id="testfilter" transform="translate(6,46)"/>
<path d="M0 0 C2.64 0 5.28 0 8 0 C8 4.29 8 8.58 8 13 C5.36 13 2.72 13 0 13 C0 8.71 0 4.42 0 0 Z " fill="currentColor" id="testfilter" transform="translate(46,6)"/>
</svg>
